<svg width="25" height="25" viewBox="0 0 25 25" fill="none" xmlns="http://www.w3.org/2000/svg">
<path fill-rule="evenodd" clip-rule="evenodd" d="M9.65234 11.6264H6.32095C5.81583 11.6264 5.41895 11.2088 5.41895 10.7052C5.41895 10.1893 5.81583 9.78396 6.32095 9.78396H9.65234C10.1575 9.78396 10.5543 10.1893 10.5543 10.7052C10.5543 11.2088 10.1575 11.6264 9.65234 11.6264ZM2.36415 5.24051C1.63053 5.24051 1.14946 5.49845 0.668392 6.06346C0.187325 6.62848 0.103138 7.43915 0.211378 8.1749L1.35391 16.2325C1.57039 17.7814 2.86928 18.9224 4.39667 18.9224H17.5178C19.1173 18.9224 20.4403 17.6708 20.5726 16.0495L21.679 2.65987L23.4951 2.34051C23.9761 2.25453 24.3129 1.7755 24.2287 1.28418C24.1445 0.78181 23.6755 0.448943 23.1824 0.523869L20.314 0.964826C19.9051 1.03975 19.6044 1.38244 19.5683 1.80006L19.3398 4.55144C19.3038 4.94572 18.9911 5.24051 18.6062 5.24051H2.36415ZM17.7104 20.8638C18.7207 20.8638 19.5385 21.699 19.5385 22.7308C19.5385 23.7503 18.7207 24.5855 17.7104 24.5855C16.7122 24.5855 15.8944 23.7503 15.8944 22.7308C15.8944 21.699 16.7122 20.8638 17.7104 20.8638ZM4.18041 20.8638C5.19066 20.8638 6.00847 21.699 6.00847 22.7308C6.00847 23.7503 5.19066 24.5855 4.18041 24.5855C3.1822 24.5855 2.36438 23.7503 2.36438 22.7308C2.36438 21.699 3.1822 20.8638 4.18041 20.8638Z" fill="#555555"/>
</svg>
