<svg width="32" height="31" viewBox="0 0 32 31" fill="none" xmlns="http://www.w3.org/2000/svg">
<path fill-rule="evenodd" clip-rule="evenodd" d="M22.0695 2.67081H10.1386C5.79368 2.67081 3.3408 5.09244 3.32803 9.36198V21.0872C3.32803 25.3555 5.79368 27.7784 10.1386 27.7784H22.0695C26.4144 27.7784 28.8788 25.3555 28.8788 21.0872V9.36198C28.8788 5.09244 26.4144 2.67081 22.0695 2.67081ZM16.0407 22.5812C15.4901 22.5812 15.0315 22.1794 14.9804 21.6396V8.84729C14.9293 8.45812 15.1196 8.0677 15.4646 7.85554C15.8235 7.64212 16.2579 7.64212 16.6016 7.85554C16.9478 8.0677 17.1381 8.45812 17.1011 8.84729V21.6396C17.0359 22.1794 16.5773 22.5812 16.0407 22.5812ZM10.1628 22.5811C9.62622 22.5811 9.16758 22.1794 9.10243 21.6396V17.5219C9.06538 17.119 9.25573 16.7436 9.60194 16.5302C9.9456 16.3168 10.38 16.3168 10.7377 16.5302C11.0839 16.7436 11.2742 17.119 11.2231 17.5219V21.6396C11.172 22.1794 10.7134 22.5811 10.1628 22.5811ZM20.9338 21.6396C20.9849 22.1794 21.4435 22.5811 21.9941 22.5811C22.5435 22.5811 23.0034 22.1794 23.0532 21.6396V12.9649C23.0915 12.5745 22.9012 12.1866 22.5549 11.9732C22.2113 11.7598 21.7757 11.7598 21.4307 11.9732C21.0871 12.1866 20.8941 12.5745 20.9338 12.9649V21.6396Z" fill="#555555"/>
</svg>
