<svg width="146" height="32" viewBox="0 0 146 32" fill="none" xmlns="http://www.w3.org/2000/svg">
<path d="M2.27558 27.911L9.48286 23.1231H6.80973C5.73823 23.1231 4.68364 22.8073 3.64598 22.1757C2.61959 21.5328 1.77366 20.6756 1.1082 19.6041C0.454018 18.5213 0.126927 17.3483 0.126927 16.085C0.126927 14.8105 0.442739 13.6318 1.07436 12.549C1.70599 11.4663 2.56319 10.6091 3.64598 9.97743C4.72876 9.33453 5.90741 9.01308 7.18194 9.01308H14.2539V24.4428L4.35655 31.041L2.27558 27.911ZM10.5149 19.3841V12.7351H7.18194C6.58415 12.7351 6.03148 12.8874 5.52393 13.1919C5.01637 13.4852 4.61033 13.8856 4.3058 14.3932C4.01254 14.9007 3.86592 15.4534 3.86592 16.0512C3.86592 16.6602 4.01254 17.2186 4.3058 17.7261C4.61033 18.2337 5.01637 18.6397 5.52393 18.9442C6.03148 19.2375 6.58415 19.3841 7.18194 19.3841H10.5149ZM12.9342 19.3841H15.9626L16.6225 21.2621L15.9626 23.1231H12.9342V19.3841ZM15.895 23.1231L15.3028 21.2621L15.9288 19.3841H15.9626C16.5604 19.3841 17.1131 19.2375 17.6207 18.9442C18.1282 18.6397 18.5286 18.2337 18.8219 17.7261C19.1264 17.2186 19.2787 16.6659 19.2787 16.0681V10.3666L23.0177 9.45296V16.0681C23.0177 16.6659 23.1643 17.2186 23.4575 17.7261C23.7508 18.2337 24.1512 18.6397 24.6588 18.9442C25.1663 19.2375 25.7246 19.3841 26.3337 19.3841L26.9935 21.2621L26.3337 23.1231C25.3073 23.1231 24.3373 22.9032 23.4237 22.4633C22.5101 22.0234 21.7488 21.4256 21.1397 20.6699C20.5194 21.4256 19.758 22.0234 18.8557 22.4633C17.9534 22.9032 16.989 23.1231 15.9626 23.1231H15.895ZM19.3802 2.70248H22.8654V5.88316H19.3802V2.70248ZM25.6908 21.2621L26.3506 19.3841H32.3228L32.9827 21.2959L32.3228 23.1231H26.3506L25.6908 21.2621ZM31.6799 21.2621L32.3398 19.3841H38.312L38.9718 21.2959L38.312 23.1231H32.3398L31.6799 21.2621ZM37.6691 21.2621L38.3289 19.3841H44.3011L44.961 21.2959L44.3011 23.1231H38.3289L37.6691 21.2621ZM43.6582 21.2621L44.3181 19.3841H50.2903L50.9501 21.2959L50.2903 23.1231H44.3181L43.6582 21.2621ZM49.6474 21.2621L50.3072 19.3841H56.2794L56.9393 21.2959L56.2794 23.1231H50.3072L49.6474 21.2621ZM55.6365 21.2621L56.2963 19.3841H62.2686L62.9284 21.2959L62.2686 23.1231H56.2963L55.6365 21.2621ZM61.6257 21.2621L62.2855 19.3841H68.2577L68.9176 21.2959L68.2577 23.1231H62.2855L61.6257 21.2621ZM67.6148 21.2621L68.2747 19.3841H74.2469L74.9067 21.2959L74.2469 23.1231H68.2747L67.6148 21.2621ZM73.604 21.2621L74.2638 19.3841H80.236L80.8958 21.2959L80.236 23.1231H74.2638L73.604 21.2621ZM79.5931 21.2621L80.2529 19.3841H86.2252L86.885 21.2959L86.2252 23.1231H80.2529L79.5931 21.2621ZM86.1744 23.1231L85.5823 21.2621L86.2083 19.3841H86.2421C86.8399 19.3841 87.3926 19.2375 87.9001 18.9442C88.4077 18.6397 88.8081 18.2337 89.1013 17.7261C89.4059 17.2186 89.5581 16.6659 89.5581 16.0681V10.3666L93.2971 9.45296V16.0681C93.2971 16.6659 93.4437 17.2186 93.737 17.7261C94.0302 18.2337 94.4307 18.6397 94.9382 18.9442C95.4458 19.2375 96.0041 19.3841 96.6131 19.3841L97.273 21.2621L96.6131 23.1231C95.5867 23.1231 94.6168 22.9032 93.7032 22.4633C92.7896 22.0234 92.0282 21.4256 91.4192 20.6699C90.7988 21.4256 90.0375 22.0234 89.1352 22.4633C88.2328 22.9032 87.2685 23.1231 86.2421 23.1231H86.1744ZM90.6747 29.6536H82.8246V26.5914H90.6747V29.6536ZM96.5624 23.1231L95.9702 21.2621L96.5793 19.3841H96.6301C97.2278 19.3841 97.7805 19.2375 98.2881 18.9442C98.7956 18.6397 99.196 18.2337 99.4893 17.7261C99.7938 17.2073 99.9461 16.649 99.9461 16.0512V8.99616H107.001C108.287 8.99616 109.471 9.31197 110.554 9.9436C111.637 10.5752 112.494 11.4324 113.126 12.5152C113.757 13.5867 114.073 14.7654 114.073 16.0512C114.073 17.337 113.757 18.5213 113.126 19.6041C112.494 20.6868 111.637 21.544 110.554 22.1757C109.471 22.8073 108.287 23.1231 107.001 23.1231C105.975 23.1231 105.01 22.9032 104.108 22.4633C103.206 22.0121 102.45 21.4087 101.841 20.653C101.221 21.42 100.454 22.0234 99.54 22.4633C98.6377 22.9032 97.6677 23.1231 96.6301 23.1231H96.5624ZM107.001 19.3841C107.61 19.3841 108.168 19.2375 108.676 18.9442C109.184 18.6397 109.584 18.2337 109.877 17.7261C110.17 17.2073 110.317 16.649 110.317 16.0512C110.317 15.4534 110.17 14.9007 109.877 14.3932C109.584 13.8856 109.184 13.4852 108.676 13.1919C108.168 12.8987 107.61 12.7521 107.001 12.7521H103.719V16.0512C103.719 16.649 103.866 17.2073 104.159 17.7261C104.452 18.2337 104.847 18.6397 105.343 18.9442C105.851 19.2375 106.403 19.3841 107.001 19.3841ZM117.321 23.1231C116.295 23.1231 115.331 22.9032 114.428 22.4633C113.526 22.0234 112.765 21.42 112.144 20.653L111.011 17.8953L112.263 15.5098L114.073 16.0681C114.073 16.6659 114.22 17.2186 114.513 17.7261C114.806 18.2337 115.207 18.6397 115.714 18.9442C116.222 19.2375 116.78 19.3841 117.389 19.3841L117.981 21.2621L117.321 23.1231ZM117.22 23.1231L116.678 21.2621L117.288 19.3841H117.338C117.936 19.3841 118.489 19.2375 118.996 18.9442C119.504 18.6397 119.904 18.2337 120.198 17.7261C120.491 17.2186 120.637 16.6659 120.637 16.0681V10.3666L124.393 9.45296V16.0681C124.393 17.3426 124.072 18.5213 123.429 19.6041C122.797 20.6868 121.94 21.544 120.857 22.1757C119.786 22.8073 118.613 23.1231 117.338 23.1231H117.22ZM121.771 29.6706H113.921V26.6083H121.771V29.6706ZM134.934 23.1231C133.648 23.1231 132.463 22.8073 131.381 22.1757C130.298 21.5328 129.441 20.6756 128.809 19.6041C128.177 18.5213 127.862 17.3426 127.862 16.0681V1.55202L131.601 0.604583V16.0681C131.601 16.6659 131.747 17.2186 132.04 17.7261C132.345 18.2337 132.751 18.6397 133.259 18.9442C133.777 19.2375 134.336 19.3841 134.934 19.3841L135.593 21.2621L134.934 23.1231ZM134.274 21.2621L134.934 19.3841H137.59C138.188 19.3841 138.74 19.2375 139.248 18.9442C139.755 18.6397 140.156 18.2337 140.449 17.7261C140.753 17.2186 140.906 16.6659 140.906 16.0681V10.3666L144.645 9.45296V16.0681C144.645 17.3426 144.329 18.5213 143.697 19.6041C143.066 20.6868 142.208 21.544 141.126 22.1757C140.043 22.8073 138.864 23.1231 137.59 23.1231H134.934L134.274 21.2621ZM137.539 2.83783H145.389V5.90007H137.539V2.83783Z" fill="white"/>
</svg>
