<svg width="31" height="31" viewBox="0 0 31 31" fill="none" xmlns="http://www.w3.org/2000/svg">
<path fill-rule="evenodd" clip-rule="evenodd" d="M19.9291 16.5593C19.9291 16.9792 19.5886 17.3197 19.1687 17.3197L5.98803 17.3197C5.56806 17.3197 5.22761 16.9792 5.22761 16.5592C5.22761 16.1393 5.56806 15.7988 5.98803 15.7988L19.1687 15.7988C19.5886 15.7988 19.9291 16.1393 19.9291 16.5593Z" fill="#555555" stroke="#555555" stroke-width="0.313984" stroke-linecap="round"/>
<path fill-rule="evenodd" clip-rule="evenodd" d="M10.5814 22.4436C10.2844 22.7405 9.80292 22.7405 9.50596 22.4436L4.50818 17.4458C4.17162 17.1092 4.17162 16.5636 4.50818 16.227L9.50596 11.2292C9.80292 10.9323 10.2844 10.9323 10.5814 11.2292C10.8783 11.5262 10.8783 12.0077 10.5814 12.3046L6.04958 16.8364L10.5814 21.3682C10.8783 21.6651 10.8783 22.1466 10.5814 22.4436Z" fill="#555555" stroke="#555555" stroke-width="0.313984" stroke-linecap="round"/>
<path fill-rule="evenodd" clip-rule="evenodd" d="M17.7327 7.3735C17.7327 6.95353 18.0731 6.61308 18.4931 6.61308H23.1232C23.5992 6.61308 23.985 6.99893 23.985 7.47489V26.1981C23.985 26.6741 23.5992 27.06 23.1232 27.06H17.8172C17.3972 27.06 17.0568 26.7195 17.0568 26.2995C17.0568 25.8796 17.3972 25.5391 17.8172 25.5391H22.4642V8.13392H18.4931C18.0731 8.13392 17.7327 7.79347 17.7327 7.3735Z" fill="#555555" stroke="#555555" stroke-width="0.313984" stroke-linecap="round"/>
</svg>
