<svg width="30" height="29" viewBox="0 0 30 29" fill="none" xmlns="http://www.w3.org/2000/svg">
<path fill-rule="evenodd" clip-rule="evenodd" d="M8.09877 10.1339H3.00617C3.00617 6.04501 5.45618 3.65634 9.60729 3.65634H20.4772C24.6283 3.65634 27.0783 6.04501 27.0783 10.0818V18.8958C27.0783 22.9326 24.6283 25.3213 20.4772 25.3213H9.60729C5.45618 25.3213 3.00617 22.9326 3.00617 18.8958V18.5203H8.09877C10.4623 18.5203 12.3783 16.6523 12.3783 14.348C12.3783 12.0437 10.4623 10.1756 8.09877 10.1756V10.1339ZM8.09896 11.928H3.90506C3.40872 11.928 3.00636 12.3203 3.00636 12.8042V15.85C3.01214 16.3316 3.41114 16.7206 3.90506 16.7262H8.00267C9.19918 16.7419 10.2455 15.9432 10.5169 14.8069C10.6528 14.1016 10.462 13.3737 9.99562 12.8185C9.52926 12.2632 8.83501 11.9372 8.09896 11.928ZM7.91706 15.1303H7.52121C7.01306 15.1303 6.60112 14.7287 6.60112 14.2333C6.60112 13.7378 7.01306 13.3362 7.52121 13.3362H7.91706C8.1601 13.3334 8.39416 13.4256 8.56703 13.5922C8.73989 13.7588 8.83717 13.9859 8.83715 14.2228C8.83718 14.72 8.42694 15.1246 7.91706 15.1303ZM21.3757 10.1339H14.582C14.0739 10.1339 13.6619 9.73229 13.6619 9.23686C13.6619 8.74143 14.0739 8.33981 14.582 8.33981H21.3757C21.8797 8.33978 22.2899 8.73508 22.2958 9.22643C22.2958 9.72358 21.8856 10.1282 21.3757 10.1339Z" fill="white"/>
</svg>
